<svg xmlns="http://www.w3.org/2000/svg" width="111" height="32" viewBox="0 0 111 32" fill="none">
    <g filter="url(#filter0_d)">
        <path d="M7.24414 0H12.2082V14.5984H7.24414V0Z" fill="#00CD4A"/>
        <path d="M29.9528 0V14.5984H25.8722L20.2771 7.96657V14.5984H15.4392V0H19.5199L25.1149 6.63186V0H29.9528Z"
              fill="#00CD4A"/>
        <path d="M37.8184 14.5984C36.6312 14.5984 35.4712 14.4721 34.3386 14.2195C33.2196 13.9536 32.2985 13.6013 31.5752 13.1625L33.1309 9.73228C33.8132 10.1179 34.5774 10.4303 35.4235 10.6696C36.2695 10.8956 37.0815 11.0086 37.8593 11.0086C38.528 11.0086 39.0056 10.9488 39.2922 10.8292C39.5788 10.6962 39.7221 10.5034 39.7221 10.2508C39.7221 9.95831 39.531 9.73893 39.1489 9.59268C38.7805 9.44643 38.1664 9.28688 37.3067 9.11404C36.2013 8.88802 35.2802 8.6487 34.5433 8.39609C33.8064 8.13018 33.165 7.70472 32.6191 7.11972C32.0733 6.52143 31.8004 5.71705 31.8004 4.7066C31.8004 3.82909 32.0528 3.03137 32.5577 2.31341C33.0626 1.59546 33.8132 1.0304 34.8094 0.618238C35.8192 0.206079 37.0406 0 38.4734 0C39.456 0 40.418 0.106364 41.3596 0.319091C42.3149 0.518523 43.1541 0.817671 43.8774 1.21654L42.4241 4.62682C41.0185 3.93546 39.688 3.58978 38.4325 3.58978C37.1907 3.58978 36.5698 3.88228 36.5698 4.46728C36.5698 4.74648 36.754 4.95921 37.1224 5.10546C37.4909 5.23841 38.0982 5.38466 38.9442 5.54421C40.0359 5.74364 40.9571 5.97631 41.7076 6.24222C42.4582 6.49484 43.1064 6.91364 43.6522 7.49864C44.2117 8.08364 44.4915 8.88137 44.4915 9.89183C44.4915 10.7693 44.239 11.5671 43.7341 12.285C43.2292 12.9897 42.4718 13.5547 41.462 13.9802C40.4658 14.3923 39.2513 14.5984 37.8184 14.5984Z"
              fill="black"/>
        <path d="M51.5786 3.86898V6.26217H57.5557V9.81206H51.5786V14.2793H46.7478V0.319091H58.395V3.86898H51.5786Z"
              fill="black"/>
        <path d="M72.6531 10.7294V14.2793H60.7398V0.319091H72.387V3.86898H65.4888V5.50432H71.5478V8.89467H65.4888V10.7294H72.6531Z"
              fill="black"/>
        <path d="M81.4725 10.7693H80.1624V14.2793H75.3316V0.319091H82.2298C83.5535 0.319091 84.7067 0.531818 85.6892 0.957273C86.6717 1.38273 87.4291 1.99432 87.9613 2.79205C88.4935 3.58978 88.7596 4.52046 88.7596 5.5841C88.7596 6.58126 88.5276 7.45211 88.0637 8.19666C87.5997 8.9412 86.931 9.53285 86.0576 9.9716L89.0667 14.2793H83.9083L81.4725 10.7693ZM83.8879 5.5841C83.8879 5.06557 83.7241 4.66671 83.3966 4.3875C83.0691 4.095 82.5778 3.94875 81.9228 3.94875H80.1624V7.21944H81.9228C82.5778 7.21944 83.0691 7.07984 83.3966 6.80063C83.7241 6.50813 83.8879 6.10262 83.8879 5.5841Z"
              fill="black"/>
        <path d="M98.9149 14.5984C97.3729 14.5984 95.9878 14.286 94.7596 13.6611C93.5314 13.0362 92.5694 12.172 91.8734 11.0685C91.1774 9.95166 90.8294 8.69524 90.8294 7.29921C90.8294 5.90319 91.1774 4.65341 91.8734 3.54989C92.5694 2.43307 93.5314 1.56222 94.7596 0.93733C95.9878 0.312443 97.3729 0 98.9149 0C100.457 0 101.842 0.312443 103.07 0.93733C104.298 1.56222 105.26 2.43307 105.956 3.54989C106.652 4.65341 107 5.90319 107 7.29921C107 8.69524 106.652 9.95166 105.956 11.0685C105.26 12.172 104.298 13.0362 103.07 13.6611C101.842 14.286 100.457 14.5984 98.9149 14.5984ZM98.9149 10.7893C99.5154 10.7893 100.054 10.6497 100.532 10.3705C101.023 10.078 101.412 9.67245 101.699 9.15393C101.985 8.62211 102.129 8.00387 102.129 7.29921C102.129 6.59455 101.985 5.98296 101.699 5.46444C101.412 4.93262 101.023 4.52711 100.532 4.2479C100.054 3.9554 99.5154 3.80915 98.9149 3.80915C98.3145 3.80915 97.7686 3.9554 97.2774 4.2479C96.7997 4.52711 96.4176 4.93262 96.1311 5.46444C95.8445 5.98296 95.7012 6.59455 95.7012 7.29921C95.7012 8.00387 95.8445 8.62211 96.1311 9.15393C96.4176 9.67245 96.7997 10.078 97.2774 10.3705C97.7686 10.6497 98.3145 10.7893 98.9149 10.7893Z"
              fill="black"/>
        <path fill-rule="evenodd" clip-rule="evenodd"
              d="M32.3858 14.5986C29.8654 19.8732 24.4575 23.5199 18.1929 23.5199C11.9283 23.5199 6.52044 19.8732 4 14.5986H9.25196C11.3411 17.1133 14.5014 18.716 18.0382 18.716C21.5751 18.716 24.7354 17.1133 26.8245 14.5986L32.3858 14.5986Z"
              fill="#00CD4A"/>
    </g>
    <defs>
        <filter id="filter0_d" x="0" y="0" width="111" height="31.5199" filterUnits="userSpaceOnUse"
                color-interpolation-filters="sRGB">
            <feFlood flood-opacity="0" result="BackgroundImageFix"/>
            <feColorMatrix in="SourceAlpha" type="matrix" values="0 0 0 0 0 0 0 0 0 0 0 0 0 0 0 0 0 0 127 0"/>
            <feOffset dy="4"/>
            <feGaussianBlur stdDeviation="2"/>
            <feColorMatrix type="matrix" values="0 0 0 0 0 0 0 0 0 0 0 0 0 0 0 0 0 0 0.25 0"/>
            <feBlend mode="normal" in2="BackgroundImageFix" result="effect1_dropShadow"/>
            <feBlend mode="normal" in="SourceGraphic" in2="effect1_dropShadow" result="shape"/>
        </filter>
    </defs>
</svg>